<svg id="Layer_1" data-name="Layer 1" xmlns="http://www.w3.org/2000/svg" viewBox="0 0 472.95 313.93"><title>arrow</title><path d="M499.5,656.43A44,44,0,0,1,466,641L274.15,416.1a44,44,0,0,1,33.49-72.6H691.36a44,44,0,0,1,33.5,72.6L533,641A44,44,0,0,1,499.5,656.43Z" transform="translate(-263.02 -343)"/><path d="M691.36,344a43.52,43.52,0,0,1,33.11,71.78L532.61,640.65a43.51,43.51,0,0,1-66.22,0L274.53,415.78A43.52,43.52,0,0,1,307.64,344H691.36m0-1H307.64c-38,0-58.54,44.53-33.88,73.43L465.63,641.3a44.51,44.51,0,0,0,67.74,0L725.24,416.43c24.66-28.9,4.12-73.43-33.88-73.43Z" transform="translate(-263.02 -343)"/></svg>